<svg width="25" height="24" viewBox="0 0 25 24" fill="none" xmlns="http://www.w3.org/2000/svg">
<path d="M16.5625 11.25H13V7.6875C13 7.58437 12.9156 7.5 12.8125 7.5H11.6875C11.5844 7.5 11.5 7.58437 11.5 7.6875V11.25H7.9375C7.83437 11.25 7.75 11.3344 7.75 11.4375V12.5625C7.75 12.6656 7.83437 12.75 7.9375 12.75H11.5V16.3125C11.5 16.4156 11.5844 16.5 11.6875 16.5H12.8125C12.9156 16.5 13 16.4156 13 16.3125V12.75H16.5625C16.6656 12.75 16.75 12.6656 16.75 12.5625V11.4375C16.75 11.3344 16.6656 11.25 16.5625 11.25Z" fill="#0DD1FD"/>
<path d="M12.25 1.5C6.45156 1.5 1.75 6.20156 1.75 12C1.75 17.7984 6.45156 22.5 12.25 22.5C18.0484 22.5 22.75 17.7984 22.75 12C22.75 6.20156 18.0484 1.5 12.25 1.5ZM12.25 20.7188C7.43594 20.7188 3.53125 16.8141 3.53125 12C3.53125 7.18594 7.43594 3.28125 12.25 3.28125C17.0641 3.28125 20.9688 7.18594 20.9688 12C20.9688 16.8141 17.0641 20.7188 12.25 20.7188Z" fill="#334155"/>
</svg>
