<svg width="25" height="24" viewBox="0 0 25 24" fill="none" xmlns="http://www.w3.org/2000/svg">
<path d="M19.875 15.75H16.875C16.6679 15.75 16.5 15.9179 16.5 16.125V19.125C16.5 19.3321 16.6679 19.5 16.875 19.5H19.875C20.0821 19.5 20.25 19.3321 20.25 19.125V16.125C20.25 15.9179 20.0821 15.75 19.875 15.75Z" fill="#0DD1FD"/>
<path d="M16.125 12.75H13.875C13.6679 12.75 13.5 12.9179 13.5 13.125V15.375C13.5 15.5821 13.6679 15.75 13.875 15.75H16.125C16.3321 15.75 16.5 15.5821 16.5 15.375V13.125C16.5 12.9179 16.3321 12.75 16.125 12.75Z" fill="#0DD1FD"/>
<path d="M22.875 19.5H20.625C20.4179 19.5 20.25 19.6679 20.25 19.875V22.125C20.25 22.3321 20.4179 22.5 20.625 22.5H22.875C23.0821 22.5 23.25 22.3321 23.25 22.125V19.875C23.25 19.6679 23.0821 19.5 22.875 19.5Z" fill="#0DD1FD"/>
<path d="M22.875 12.75H21.375C21.1679 12.75 21 12.9179 21 13.125V14.625C21 14.8321 21.1679 15 21.375 15H22.875C23.0821 15 23.25 14.8321 23.25 14.625V13.125C23.25 12.9179 23.0821 12.75 22.875 12.75Z" fill="#0DD1FD"/>
<path d="M15.375 20.25H13.875C13.6679 20.25 13.5 20.4179 13.5 20.625V22.125C13.5 22.3321 13.6679 22.5 13.875 22.5H15.375C15.5821 22.5 15.75 22.3321 15.75 22.125V20.625C15.75 20.4179 15.5821 20.25 15.375 20.25Z" fill="#0DD1FD"/>
<path d="M21.75 1.5H15C14.6022 1.5 14.2206 1.65804 13.9393 1.93934C13.658 2.22064 13.5 2.60218 13.5 3V9.75C13.5 10.1478 13.658 10.5294 13.9393 10.8107C14.2206 11.092 14.6022 11.25 15 11.25H21.75C22.1478 11.25 22.5294 11.092 22.8107 10.8107C23.092 10.5294 23.25 10.1478 23.25 9.75V3C23.25 2.60218 23.092 2.22064 22.8107 1.93934C22.5294 1.65804 22.1478 1.5 21.75 1.5ZM20.25 7.875C20.25 7.97446 20.2105 8.06984 20.1402 8.14017C20.0698 8.21049 19.9745 8.25 19.875 8.25H16.875C16.7755 8.25 16.6802 8.21049 16.6098 8.14017C16.5395 8.06984 16.5 7.97446 16.5 7.875V4.875C16.5 4.77554 16.5395 4.68016 16.6098 4.60984C16.6802 4.53951 16.7755 4.5 16.875 4.5H19.875C19.9745 4.5 20.0698 4.53951 20.1402 4.60984C20.2105 4.68016 20.25 4.77554 20.25 4.875V7.875ZM10.5 1.5H3.75C3.35218 1.5 2.97064 1.65804 2.68934 1.93934C2.40804 2.22064 2.25 2.60218 2.25 3V9.75C2.25 10.1478 2.40804 10.5294 2.68934 10.8107C2.97064 11.092 3.35218 11.25 3.75 11.25H10.5C10.8978 11.25 11.2794 11.092 11.5607 10.8107C11.842 10.5294 12 10.1478 12 9.75V3C12 2.60218 11.842 2.22064 11.5607 1.93934C11.2794 1.65804 10.8978 1.5 10.5 1.5ZM9 7.875C9 7.97446 8.96049 8.06984 8.89017 8.14017C8.81984 8.21049 8.72446 8.25 8.625 8.25H5.625C5.52554 8.25 5.43016 8.21049 5.35984 8.14017C5.28951 8.06984 5.25 7.97446 5.25 7.875V4.875C5.25 4.77554 5.28951 4.68016 5.35984 4.60984C5.43016 4.53951 5.52554 4.5 5.625 4.5H8.625C8.72446 4.5 8.81984 4.53951 8.89017 4.60984C8.96049 4.68016 9 4.77554 9 4.875V7.875ZM10.5 12.75H3.75C3.35218 12.75 2.97064 12.908 2.68934 13.1893C2.40804 13.4706 2.25 13.8522 2.25 14.25V21C2.25 21.3978 2.40804 21.7794 2.68934 22.0607C2.97064 22.342 3.35218 22.5 3.75 22.5H10.5C10.8978 22.5 11.2794 22.342 11.5607 22.0607C11.842 21.7794 12 21.3978 12 21V14.25C12 13.8522 11.842 13.4706 11.5607 13.1893C11.2794 12.908 10.8978 12.75 10.5 12.75ZM9 19.125C9 19.2245 8.96049 19.3198 8.89017 19.3902C8.81984 19.4605 8.72446 19.5 8.625 19.5H5.625C5.52554 19.5 5.43016 19.4605 5.35984 19.3902C5.28951 19.3198 5.25 19.2245 5.25 19.125V16.125C5.25 16.0255 5.28951 15.9302 5.35984 15.8598C5.43016 15.7895 5.52554 15.75 5.625 15.75H8.625C8.72446 15.75 8.81984 15.7895 8.89017 15.8598C8.96049 15.9302 9 16.0255 9 16.125V19.125Z" fill="#334155"/>
</svg>
